<svg id="Capa_1" data-name="Capa 1" xmlns="http://www.w3.org/2000/svg" viewBox="0 0 1125 1143"><defs><style>.cls-1{fill:#f6d1af;}.cls-2{fill:#c99887;}.cls-3{fill:#ee8237;}</style></defs><path class="cls-1" d="M194.09,741.55c14.64-43.71,85.4-16.66,122.9-97.91s33.33-297.88,91.66-418.7S539.88,64.54,656.54,72.87s235.39,125,254.14,208.31S969,427,927.34,577,819,831.12,658.62,895.7,160.76,881.12,194.09,741.55Z"/><path class="cls-2" d="M606.42,287.61a103.47,103.47,0,0,0-35-7.87c-6.18-.29-12.53,0-18.25,2.38s-10.73,7.09-12.11,13.12c-1.43,6.3,1.34,13,5.83,17.67s10.47,7.55,16.51,9.85a120,120,0,0,0,40.73,7.9c5.62.1,11.42-.23,16.5-2.64s9.31-7.29,9.48-12.91c.17-5.93-4-11.07-8.47-15a69.47,69.47,0,0,0-49.57-17"/><polygon class="cls-3" points="818.23 147.13 884.89 225.6 925.35 128.08 818.23 147.13"/></svg>