<svg id="Capa_1" data-name="Capa 1" xmlns="http://www.w3.org/2000/svg" viewBox="0 0 191 399"><defs><style>.cls-1{fill:#da8243;}</style></defs><path class="cls-1" d="M76.16,87C53.41,110.19,41,142,35.8,174S32,238.79,33.38,271.24q1,23.75,2.06,47.47c.5,11.57,1.19,23.74,7.43,33.49,8.48,13.26,27.21,18.77,41.52,12.23s22.41-24.3,17.94-39.39A22.51,22.51,0,0,0,133,356.1c9.25-5.49,13.32-16.64,15.85-27.09,10.41-43,6.29-87.92,4-132.07q-1.74-33.16-2.06-66.37c-.17-18.27,3.45-39.91-1.52-57.7C138.92,35.8,91.73,71.13,76.16,87Z"/></svg>