<svg id="Capa_1" data-name="Capa 1" xmlns="http://www.w3.org/2000/svg" viewBox="0 0 681 764"><defs><style>.cls-1{fill:#fad0ae;}.cls-2{fill:#fdf1e7;}.cls-3{fill:none;stroke:blue;stroke-linecap:round;stroke-linejoin:round;stroke-width:2px;}.cls-4{fill:#fa8022;}.cls-5{fill:#ae8051;}</style></defs><path class="cls-1" d="M116,137.5c-3.36.88-6.87,1.86-9.4,4.25s-3.76,6.06-4.76,9.51C83.27,215.05,83.56,282.58,84,349c.29,43.67.57,87.35,2.35,131,2.43,59.47,10,124.29,52.34,166.16,3.13,3.1,6.59,6.13,10.84,7.3,3.61,1,7.44.54,11.17.08l172.05-21.18c35.77-4.4,71.89-8.81,107.75-5.23a244,244,0,0,1,78.23,21.37c15.39-16.24,21.48-39,26-60.91,23-112.17,18.24-229.18-9.25-340.11a848.46,848.46,0,0,0-24.88-82.27C502,141.36,493.79,107.43,478,87.38c-12.36-15.66-48.11-3.28-66-1.67q-46.55,4.17-92.84,10.77A1796.46,1796.46,0,0,0,116,137.5Z"/><path class="cls-2" d="M206.66,647.77c-43.07-59.3-60.24-136.74-46.28-208.69A209.39,209.39,0,0,1,176,389.68a172.6,172.6,0,0,1,81-81.42c10.49-5,21.57-8.95,33.08-10.5,30.51-4.11,61.55,9.37,83.94,30.48s37.13,49.11,48.2,77.83c29.07,75.49,33.05,154.31,14.85,233.13-81.9-8-144.53,6.75-219.45,15.27a63.75,63.75,0,0,0-42.46-22.8"/><path class="cls-3" d="M240.21,358.48c-.11,9.68,4.61,19.43,12.64,24.83s19.22,6,27.46.89,12.79-15.76,10.15-25.07c-1.59,11.23,8.4,22.65,19.74,22.58s21.18-11.62,19.45-22.83a29.09,29.09,0,0,0,15.44,22c2.93,1.48,6.27,2.47,9.49,1.83,5.44-1.07,9.1-6.61,9.8-12.11s-.89-11-2.47-16.34l-2.68-9c-.25-.84-.71-1.86-1.59-1.86s-.59,1.86.07,1.28"/><path class="cls-3" d="M247.8,441.49c-1.61,0-1.61,2.47-1,3.95,2.38,5.58,5.85,11,11.13,14s12.65,2.88,16.81-1.53c4.78-5.07,3.69-13.1,2.28-19.92,1.25,5.9,6.16,10.5,11.71,12.84s11.7,2.75,17.72,2.86c4.53.08,9.44-.13,12.94-3,2.54-2.09,3.91-5.28,4.71-8.47a33,33,0,0,0-1.77-21.07A24.6,24.6,0,0,0,339.09,442c9.41,2.94,21.13-1.29,24.78-10.45,1.46-3.66,1.59-7.7,1.7-11.65"/><path class="cls-3" d="M269.58,492c-.8,4.25,1.54,8.61,4.89,11.35s7.58,4.12,11.74,5.29c10.09,2.85,21.51,4.6,30.58-.65a22.63,22.63,0,0,0,11-17.16c-.53,6.53,1.83,13.62,7.26,17.26s14,2.45,17.12-3.32c1.83-3.42,1.52-7.56,1.15-11.43l-.71-7.5"/><path class="cls-4" d="M309.93,221.11c-8.91-.69-19.28,2.53-22.53,10.86a74.4,74.4,0,0,0,38.25,42.6c5,2.36,9.89-33.39,9.61-36.55C333.9,222.87,324.73,222.25,309.93,221.11Z"/><path class="cls-5" d="M422.28,126.26c-16.09-3.85-35-2.48-46.43,9.49-9,9.45-11.42,23.44-11.18,36.5.76,42,26.33,82.55,63.85,101.36,17.94,9,42,12.24,56.34-1.8,21.09-20.63,16.71-67.13,5.12-91.89C478.29,154.93,448.47,132.54,422.28,126.26Z"/><path class="cls-5" d="M135.22,216.75q-3.84,22.2-5.68,44.68c-.89,10.91-1.3,22.45,3.7,32.18,4.77,9.26,13.88,15.6,23.48,19.62,13.17,5.52,28.52,7.24,41.69,1.72,19.79-8.29,30-30.3,34.91-51.18,7.51-31.81,6.25-81.87-26.76-100.6C168.33,141.47,140.65,185.41,135.22,216.75Z"/></svg>