<svg id="Capa_1" data-name="Capa 1" xmlns="http://www.w3.org/2000/svg" viewBox="0 0 198 345"><defs><style>.cls-1{fill:#b04936;}</style></defs><path class="cls-1" d="M39.59,193.84c7.34,22.76,18.15,45.35,37,61.95a16.32,16.32,0,0,0,6.22,3.88c6.08,1.7,12.45-3.19,14-8.74s-.4-11.33-2.3-16.79c10.14,21.53,32.79,37.93,58.37,42.27a13.8,13.8,0,0,0,6.73-.07,11,11,0,0,0,5.08-4.24c10.34-14.1,7-32.75,2.09-49-15.82-52.27-44-100.74-71.94-148.74C88.59,63.67,82,52.65,71.29,45.49,62,39.3,42.32,34.66,34.48,45,26.83,55.09,28,80.15,27.15,92.06A271.62,271.62,0,0,0,39.59,193.84Z"/></svg>