<svg id="Capa_1" data-name="Capa 1" xmlns="http://www.w3.org/2000/svg" viewBox="0 0 227 427"><defs><style>.cls-1{fill:#da8243;}</style></defs><path class="cls-1" d="M42.27,259.65C51,289.89,63.92,319.9,86.38,342c2.17,2.13,4.52,4.24,7.42,5.15,7.24,2.26,14.85-4.25,16.66-11.61s-.48-15.06-2.74-22.3c12.09,28.6,39.11,50.39,69.62,56.15,2.67.5,5.5.87,8-.09s4.52-3.29,6.06-5.64c12.33-18.73,8.37-43.5,2.49-65.14C175.05,229,141.46,164.66,108.11,100.89c-7.4-14.14-15.21-28.79-28-38.31C69,54.37,45.52,48.21,36.17,62c-9.12,13.4-7.76,46.68-8.74,62.51A399.3,399.3,0,0,0,42.27,259.65Z"/></svg>