<?xml version="1.0" encoding="utf-8"?>
<!-- Generator: Adobe Illustrator 24.1.2, SVG Export Plug-In . SVG Version: 6.00 Build 0)  -->
<svg version="1.1" xmlns="http://www.w3.org/2000/svg" xmlns:xlink="http://www.w3.org/1999/xlink" x="0px" y="0px"
	 viewBox="0 0 681 764" style="enable-background:new 0 0 681 764;" xml:space="preserve">
<style type="text/css">
	.st0{fill:#DA8243;}
	.st1{fill:#B04936;}
	.st2{fill:#E18E54;}
	.st3{fill:#BA472E;}
	.st4{fill:#FAD0AE;}
	.st5{fill:#FDF1E7;}
	.st6{fill:none;stroke:#0000FF;stroke-width:2;stroke-linecap:round;stroke-linejoin:round;stroke-miterlimit:10;}
	.st7{fill:#FA8022;}
	.st8{fill:#AE8051;}
	.st9{fill:#2F2013;}
	.st10{fill:#978051;}
</style>
<g id="Capa_1">
	<path class="st4" d="M115.96,137.5c-3.36,0.88-6.87,1.86-9.39,4.25c-2.61,2.47-3.76,6.06-4.76,9.51
		C83.27,215.05,83.56,282.58,84,349.02c0.29,43.67,0.57,87.35,2.35,130.99c2.43,59.47,10.04,124.28,52.34,166.16
		c3.13,3.1,6.59,6.13,10.83,7.3c3.61,1,7.45,0.54,11.17,0.09c57.35-7.06,114.71-14.12,172.06-21.18
		c35.77-4.4,71.89-8.81,107.75-5.24c27.02,2.7,53.59,9.95,78.23,21.37c15.39-16.24,21.48-38.99,25.98-60.91
		c23.04-112.17,18.24-229.18-9.25-340.11c-6.89-27.82-15.21-55.29-24.89-82.27c-8.55-23.84-16.79-57.78-32.61-77.83
		c-12.36-15.66-48.11-3.28-66-1.67c-31.03,2.79-61.99,6.38-92.84,10.77C250.69,106.23,182.82,119.93,115.96,137.5z"/>
	<path class="st5" d="M206.66,647.77c-43.07-59.3-60.24-136.75-46.28-208.7c3.3-17,8.27-33.73,15.65-49.39
		c16.65-35.32,45.78-64.6,81.02-81.42c10.48-5,21.57-8.96,33.08-10.51c30.5-4.11,61.54,9.37,83.94,30.48
		c22.4,21.11,37.13,49.12,48.19,77.83c29.08,75.49,33.05,154.31,14.85,233.13c-81.9-8-144.53,6.75-219.44,15.27
		c-10.43-12.76-26.06-21.15-42.46-22.8"/>
	<path class="st6" d="M240.21,358.48c-0.11,9.68,4.61,19.43,12.64,24.82s19.22,5.97,27.46,0.9c8.24-5.07,12.78-15.76,10.15-25.07
		c-1.59,11.23,8.4,22.65,19.74,22.58c11.34-0.07,21.18-11.62,19.45-22.83c1.15,9.24,7.14,17.75,15.44,21.96
		c2.93,1.48,6.27,2.47,9.49,1.83c5.45-1.08,9.1-6.61,9.8-12.12c0.7-5.51-0.89-11.02-2.47-16.34c-0.89-3-1.78-6-2.67-9
		c-0.25-0.84-0.72-1.86-1.6-1.86s-0.59,1.86,0.08,1.28"/>
	<path class="st6" d="M247.8,441.49c-1.62,0.01-1.61,2.46-0.98,3.95c2.38,5.58,5.85,11,11.13,13.99c5.28,2.99,12.65,2.88,16.81-1.53
		c4.78-5.07,3.69-13.1,2.28-19.92c1.24,5.89,6.15,10.5,11.7,12.84s11.71,2.75,17.73,2.86c4.52,0.08,9.44-0.13,12.93-3
		c2.54-2.09,3.91-5.28,4.71-8.47c1.74-6.96,1.11-14.49-1.77-21.07c0.82,9.41,7.72,18,16.74,20.82c9.41,2.94,21.13-1.29,24.78-10.45
		c1.46-3.66,1.59-7.7,1.7-11.64"/>
	<path class="st6" d="M269.58,491.96c-0.8,4.25,1.54,8.62,4.89,11.35c3.35,2.73,7.58,4.12,11.74,5.29
		c10.09,2.85,21.5,4.6,30.57-0.65c6.11-3.53,10.33-10.13,10.99-17.15c-0.53,6.52,1.83,13.61,7.27,17.25
		c5.44,3.64,14.02,2.46,17.11-3.31c1.84-3.43,1.52-7.56,1.15-11.43c-0.24-2.5-0.47-5-0.71-7.5"/>
	<path class="st7" d="M309.93,221.11c-8.91-0.69-19.28,2.53-22.53,10.86c6.38,18.54,20.51,34.27,38.25,42.6
		c5.03,2.36,9.89-33.38,9.6-36.55C333.9,222.87,324.73,222.25,309.93,221.11z"/>
	<path class="st8" d="M422.28,126.26c-16.09-3.86-35.01-2.49-46.43,9.49c-9.01,9.45-11.42,23.44-11.19,36.49
		c0.76,41.97,26.33,82.55,63.85,101.36c17.95,9,41.99,12.24,56.34-1.8c21.09-20.63,16.71-67.13,5.13-91.89
		C478.29,154.93,448.47,132.54,422.28,126.26z"/>
	<path class="st8" d="M135.22,216.75c-2.56,14.8-4.46,29.71-5.68,44.68c-0.89,10.91-1.3,22.45,3.7,32.18
		c4.76,9.26,13.87,15.59,23.47,19.62c13.17,5.52,28.52,7.24,41.69,1.72c19.79-8.29,29.98-30.3,34.91-51.18
		c7.51-31.81,6.25-81.87-26.76-100.6C168.33,141.47,140.65,185.41,135.22,216.75z"/>
</g>
<g id="Capa_2">
</g>
</svg>
