<svg id="Capa_1" data-name="Capa 1" xmlns="http://www.w3.org/2000/svg" viewBox="0 0 157 347"><defs><style>.cls-1{fill:#b04936;}</style></defs><path class="cls-1" d="M57.49,89.14a97.29,97.29,0,0,0-40.36,58.34c-5.22,21.49-3.83,43.43-2.42,65.19q1,15.93,2.06,31.84c.5,7.75,1.19,15.91,7.43,22.45,8.48,8.89,27.21,12.59,41.52,8.2s22.4-16.3,17.94-26.41c-5.18,5.7-3.78,13.71,3.21,18.46s18.93,5.77,27.49,2.37c9.26-3.68,13.32-11.16,15.86-18.17,10.4-28.82,6.29-58.95,4-88.56q-1.72-22.23-2-44.5c-.18-12.25,3.45-26.77-1.53-38.69C120.25,54.8,73.06,78.49,57.49,89.14Z"/></svg>