<svg id="Capa_1" data-name="Capa 1" xmlns="http://www.w3.org/2000/svg" viewBox="0 0 954 398"><defs><style>.cls-1{fill:#71b848;}</style></defs><path class="cls-1" d="M106.28,125.38c-14.79-5.08-32.66-6.26-44.71,3.72s-14.18,28.27-9.29,43.11,15.39,27,25.65,38.83c-12.45.79-25.26,1.78-36.46,7.28S20.94,235,21.39,247.46c.48,13.52,12.32,24.47,25.26,28.38s26.83,2.31,40.26.69C66.1,285.12,51.12,306.34,50,328.82c-.2,4.08.08,8.4,2.31,11.83,1.89,2.9,5,4.81,8.06,6.35,22,10.94,50,6.59,69.54-8.42s30.66-39.4,32.23-64c.9-14.06-1.09-28.12-1.75-42.19-1-21,8.5-46.53-.53-65.28C150.47,147.65,126,132.13,106.28,125.38Z"/><path class="cls-1" d="M789.51,89.56c16.3-17.91,36.78-32.82,60.3-38.53,3.07-.75,6.48-1.29,9.25.21s4.16,4.59,5.19,7.54c8.81,25.24,2.54,55.14-15.69,74.7,21.78-8.38,49.29,7.7,52.68,30.79s-18.33,46.4-41.61,44.64a45.71,45.71,0,0,1,26,33.71c.6,3.65.72,7.5-.66,10.93-2.23,5.55-8,8.95-13.89,10.16-11,2.29-22.32-1.83-32.8-6Q798,241.49,759,222.13a6.36,6.36,0,0,1-2.82-2.14c-1-1.62-.37-3.68.2-5.48a71.68,71.68,0,0,0,2.13-33.74c-1.71-9.83-11.1-21.76-10.15-31.3C750.16,131.42,777.65,102.59,789.51,89.56Z"/></svg>