<svg id="Capa_1" data-name="Capa 1" xmlns="http://www.w3.org/2000/svg" viewBox="0 0 809 738"><defs><style>.cls-1{fill:#c4d240;}.cls-2{fill:#ffd605;}.cls-3{fill:#e0792c;}</style></defs><path class="cls-1" d="M150,93.55C145.11,90,139.29,87,133.29,87.77c-8.63,1.16-14.13,9.69-17.64,17.66-13.75,31.22-15.42,66.22-16.88,100.3q-2.94,68.55-5.89,137.1c-1.13,26.3-2.24,52.82,2,78.8,5.33,32.44,18.92,63,35.13,91.62,13,22.87,27.91,45,47.65,62.4,16.85,14.84,36.77,25.83,57.34,34.85,100.91,44.28,222.26,41,319-11.74S719.93,444.14,729.81,334.39c9.09-101-29.4-200.55-79-289-2.54-4.53-5.58-9.43-10.56-10.9-5.9-1.75-11.93,2-16.64,6-29,24.41-44.09,64.34-38.49,101.83-1.76-11.77-226.89-6.05-249.2-5.57-42.17.9-84.54,5.35-126.66,5.53C175.85,142.41,174.84,111.18,150,93.55Z"/><path class="cls-2" d="M197.46,468.88c6.09-13.7,13-27.15,22.36-38.86,13.29-16.64,31.08-29.22,50-39,78.6-40.66,175.85-33.39,256.57,2.88C585.83,420.6,644.31,444.82,660,508.07,595,623,445.46,654.94,324.54,652.56c-18.44-.36-37-1.8-54.77-6.71-19.49-5.39-37.47-14.88-54.25-26-12-8-48.74-48.26-54.77-61.54C155.25,546.18,188.74,488.47,197.46,468.88Z"/><ellipse class="cls-2" cx="177.52" cy="363.49" rx="30.73" ry="22.18" transform="matrix(0.95, -0.32, 0.32, 0.95, -105.67, 74.63)"/><ellipse class="cls-2" cx="618.9" cy="337.64" rx="22.18" ry="30.73" transform="translate(64.71 773.43) rotate(-66.8)"/><path class="cls-3" d="M329.88,198.73C304.31,224.28,358.3,308,400.3,337.59c17.12-27.16,52.81-88,42.95-121.78C434,184.13,331.93,195.51,329.88,198.73Z"/></svg>