<svg id="Capa_1" data-name="Capa 1" xmlns="http://www.w3.org/2000/svg" viewBox="0 0 833 267"><defs><style>.cls-1{fill:#7b851b;}.cls-2{fill:#313410;}</style></defs><ellipse class="cls-1" cx="217.86" cy="142.33" rx="18.07" ry="23.82"/><ellipse class="cls-1" cx="572.67" cy="142.33" rx="23.82" ry="18.07" transform="translate(216.21 612.59) rotate(-66.8)"/><path class="cls-2" d="M192,158.08a9.63,9.63,0,0,0,11.13,1,6.83,6.83,0,0,0,3.58,3.76,16.9,16.9,0,0,1-7.65,10.31,19.1,19.1,0,0,0,9.84-5.71,6,6,0,0,0,6.83.73,23.26,23.26,0,0,1,.68,8.8,11.25,11.25,0,0,0,2.08-6.64,9.44,9.44,0,0,0,8.58-4.38,9,9,0,0,0,10.24,1,7.78,7.78,0,0,1-6.06-3.8,5.44,5.44,0,0,0,1.65-5.54c3.54.28,7.09-2.66,8.1-6.73a6.59,6.59,0,0,1-7,1.45,7.75,7.75,0,0,1-2.05,4.14c-3.14,4-6.6,8.15-11.12,9.14-6,1.31-13.41-3.91-16.56-9.85C202.57,156.54,193.45,159.31,192,158.08Z"/><path class="cls-2" d="M589.77,163.52a7.88,7.88,0,0,1-9.82-1.86,6.49,6.49,0,0,1-4.14,2.68c-.23,4.62,1.1,9,3.59,11.85a16.73,16.73,0,0,1-6.77-8,4.88,4.88,0,0,1-6.06-1,26.24,26.24,0,0,0-3.1,8.26,12.27,12.27,0,0,1,.12-6.89c-2.86-.51-5.21-3-6.09-6.39a7.36,7.36,0,0,1-9-1.66,6.88,6.88,0,0,0,6.27-2.09,5.85,5.85,0,0,1,.17-5.72c-3.11-.64-5.3-4.37-5-8.52a5.43,5.43,0,0,0,5.55,3.17,8.28,8.28,0,0,0,.57,4.49c1.56,4.61,3.32,9.5,6.9,11.6,4.76,2.79,12.59-.32,17-5.2C581.17,159.34,588.17,164.32,589.77,163.52Z"/></svg>